<svg width="800" height="400" xmlns="http://www.w3.org/2000/svg">
  <defs>
    <linearGradient id="bg" x1="0%" y1="0%" x2="100%" y2="100%">
      <stop offset="0%" style="stop-color:#121212"/>
      <stop offset="100%" style="stop-color:#1a1a2e"/>
    </linearGradient>
    <filter id="glow">
      <feGaussianBlur stdDeviation="3" result="coloredBlur"/>
      <feMerge>
        <feMergeNode in="coloredBlur"/>
        <feMergeNode in="SourceGraphic"/>
      </feMerge>
    </filter>
  </defs>
  <rect width="800" height="400" fill="url(#bg)"/>
  <!-- Shuffle icon -->
  <g transform="translate(400, 140) scale(4)" fill="#1DB954" filter="url(#glow)">
    <path d="M13.151.922a.75.75 0 10-1.06 1.06L13.109 3H11.16a3.75 3.75 0 00-2.873 1.34l-6.173 7.356A2.25 2.25 0 01.39 12.5H0V14h.391a3.75 3.75 0 002.873-1.34l6.173-7.356a2.25 2.25 0 011.724-.804h1.947l-1.017 1.018a.75.75 0 001.06 1.06L15.98 3.75 13.15.922zM.391 3.5H0V2h.391c1.109 0 2.16.49 2.873 1.34L4.89 5.277l-.979 1.167-1.796-2.14A2.25 2.25 0 00.39 3.5z"/>
    <path d="M7.5 10.723l.98-1.167 1.796 2.14a2.25 2.25 0 001.724.804h1.947l-1.017-1.018a.75.75 0 111.06-1.06l2.829 2.828-2.829 2.828a.75.75 0 11-1.06-1.06L13.109 13H11.16a3.75 3.75 0 01-2.873-1.34L7.5 10.723z"/>
  </g>
  <!-- Title -->
  <text x="400" y="260" text-anchor="middle" fill="white" font-family="Segoe UI, Arial, sans-serif" font-size="48" font-weight="700">True Shuffle</text>
  <!-- Subtitle -->
  <text x="400" y="300" text-anchor="middle" fill="#b3b3b3" font-family="Segoe UI, Arial, sans-serif" font-size="18">Weighted Random · Smart Shuffle · No Repeats</text>
  <!-- Badge -->
  <rect x="310" y="330" width="180" height="30" rx="15" fill="#1DB954" opacity="0.2"/>
  <text x="400" y="350" text-anchor="middle" fill="#1DB954" font-family="Segoe UI, Arial, sans-serif" font-size="14" font-weight="600">Spicetify Extension</text>
</svg>
